<?xml version="1.0" standalone="no"?>
<!DOCTYPE svg PUBLIC "-//W3C//DTD SVG 20010904//EN"
 "http://www.w3.org/TR/2001/REC-SVG-20010904/DTD/svg10.dtd">
<svg version="1.0" xmlns="http://www.w3.org/2000/svg"
 width="260.000000pt" height="260.000000pt" viewBox="0 0 260.000000 260.000000"
 preserveAspectRatio="xMidYMid meet">
<metadata>
Created by potrace 1.11, written by Peter Selinger 2001-2013
</metadata>
<g transform="translate(0.000000,260.000000) scale(0.100000,-0.100000)"
fill="#000000" stroke="none">
<path d="M0 1300 l0 -1300 1300 0 1300 0 0 1300 0 1300 -1300 0 -1300 0 0
-1300z m1060 810 c25 -14 34 -57 16 -85 -11 -16 -28 -24 -68 -28 -65 -8 -157
5 -169 24 -16 26 -10 67 13 83 26 18 177 23 208 6z m13 -273 c21 -24 16 -64
-10 -84 -25 -19 -183 -17 -211 3 -23 16 -29 57 -13 83 23 36 203 35 234 -2z
m610 -242 c51 -13 56 -78 8 -97 -38 -14 -554 -22 -704 -10 -133 10 -157 19
-157 57 0 34 26 49 94 57 79 8 722 2 759 -7z m-499 -255 c22 -8 26 -16 26 -50
0 -55 -17 -60 -193 -60 -161 0 -187 9 -187 60 0 51 26 60 187 60 78 0 153 -4
167 -10z m647 0 c14 -8 19 -21 19 -50 0 -52 -17 -60 -129 -60 -100 0 -121 10
-121 60 0 50 21 60 121 60 50 0 99 -5 110 -10z m-759 -270 c20 -24 18 -64 -3
-85 -16 -16 -180 -18 -209 -3 -28 15 -38 55 -21 87 13 24 44 30 140 26 64 -2
77 -5 93 -25z m763 10 c11 -9 15 -25 13 -49 -4 -47 -32 -61 -123 -61 -89 0
-119 15 -123 58 -4 38 9 59 41 66 42 9 176 0 192 -14z m-647 -256 c15 -10 22
-25 22 -49 0 -52 -21 -58 -192 -58 -129 0 -150 2 -168 18 -32 29 -22 83 20 98
8 3 78 6 155 6 112 1 145 -2 163 -15z m643 6 c24 -13 27 -81 3 -101 -21 -18
-197 -18 -218 0 -16 14 -21 67 -8 87 4 6 14 14 22 17 26 10 181 7 201 -3z
m-168 -257 c72 -11 85 -82 19 -100 -15 -5 -200 -8 -412 -8 -353 0 -388 2 -413
18 -30 19 -34 43 -13 73 13 17 32 20 153 26 151 7 605 1 666 -9z"/>
</g>
</svg>
